<svg width="430" height="430" viewBox="0 0 430 430" xmlns="http://www.w3.org/2000/svg">
  <rect width="430" height="430" fill="#0d1117"/>
  <rect x="55" y="215" width="80" height="80" fill="#1e4a2e"/>
  <line x1="55" y1="283" x2="67" y2="295" stroke="#7dffc0" stroke-width="2.0" stroke-linecap="square"/>
  <line x1="55" y1="227" x2="67" y2="215" stroke="#7dffc0" stroke-width="2.0" stroke-linecap="square"/>
  <line x1="55" y1="271" x2="79" y2="295" stroke="#7dffc0" stroke-width="2.0" stroke-linecap="square"/>
  <line x1="55" y1="239" x2="79" y2="215" stroke="#7dffc0" stroke-width="2.0" stroke-linecap="square"/>
  <line x1="55" y1="259" x2="91" y2="295" stroke="#7dffc0" stroke-width="2.0" stroke-linecap="square"/>
  <line x1="55" y1="251" x2="91" y2="215" stroke="#7dffc0" stroke-width="2.0" stroke-linecap="square"/>
  <line x1="55" y1="247" x2="103" y2="295" stroke="#7dffc0" stroke-width="2.0" stroke-linecap="square"/>
  <line x1="55" y1="263" x2="103" y2="215" stroke="#7dffc0" stroke-width="2.0" stroke-linecap="square"/>
  <line x1="55" y1="235" x2="115" y2="295" stroke="#7dffc0" stroke-width="2.0" stroke-linecap="square"/>
  <line x1="55" y1="275" x2="115" y2="215" stroke="#7dffc0" stroke-width="2.0" stroke-linecap="square"/>
  <line x1="55" y1="223" x2="127" y2="295" stroke="#7dffc0" stroke-width="2.0" stroke-linecap="square"/>
  <line x1="55" y1="287" x2="127" y2="215" stroke="#7dffc0" stroke-width="2.0" stroke-linecap="square"/>
  <line x1="59" y1="215" x2="135" y2="291" stroke="#7dffc0" stroke-width="2.0" stroke-linecap="square"/>
  <line x1="59" y1="295" x2="135" y2="219" stroke="#7dffc0" stroke-width="2.0" stroke-linecap="square"/>
  <line x1="71" y1="215" x2="135" y2="279" stroke="#7dffc0" stroke-width="2.0" stroke-linecap="square"/>
  <line x1="71" y1="295" x2="135" y2="231" stroke="#7dffc0" stroke-width="2.0" stroke-linecap="square"/>
  <line x1="83" y1="215" x2="135" y2="267" stroke="#7dffc0" stroke-width="2.0" stroke-linecap="square"/>
  <line x1="83" y1="295" x2="135" y2="243" stroke="#7dffc0" stroke-width="2.0" stroke-linecap="square"/>
  <line x1="95" y1="215" x2="135" y2="255" stroke="#7dffc0" stroke-width="2.0" stroke-linecap="square"/>
  <line x1="95" y1="295" x2="135" y2="255" stroke="#7dffc0" stroke-width="2.0" stroke-linecap="square"/>
  <line x1="107" y1="215" x2="135" y2="243" stroke="#7dffc0" stroke-width="2.0" stroke-linecap="square"/>
  <line x1="107" y1="295" x2="135" y2="267" stroke="#7dffc0" stroke-width="2.0" stroke-linecap="square"/>
  <line x1="119" y1="215" x2="135" y2="231" stroke="#7dffc0" stroke-width="2.0" stroke-linecap="square"/>
  <line x1="119" y1="295" x2="135" y2="279" stroke="#7dffc0" stroke-width="2.0" stroke-linecap="square"/>
  <line x1="131" y1="215" x2="135" y2="219" stroke="#7dffc0" stroke-width="2.0" stroke-linecap="square"/>
  <line x1="131" y1="295" x2="135" y2="291" stroke="#7dffc0" stroke-width="2.0" stroke-linecap="square"/>
  <rect x="55" y="215" width="80" height="80" fill="none" stroke="#50d890" stroke-width="2"/>
  <text x="95" y="256" text-anchor="middle" dominant-baseline="middle" fill="#ffffff" font-size="13" font-family="monospace" font-weight="bold">P0</text>
  <rect x="215" y="215" width="80" height="80" fill="#1e4a2e"/>
  <line x1="215" y1="283" x2="227" y2="295" stroke="#7dffc0" stroke-width="2.0" stroke-linecap="square"/>
  <line x1="215" y1="227" x2="227" y2="215" stroke="#7dffc0" stroke-width="2.0" stroke-linecap="square"/>
  <line x1="215" y1="271" x2="239" y2="295" stroke="#7dffc0" stroke-width="2.0" stroke-linecap="square"/>
  <line x1="215" y1="239" x2="239" y2="215" stroke="#7dffc0" stroke-width="2.0" stroke-linecap="square"/>
  <line x1="215" y1="259" x2="251" y2="295" stroke="#7dffc0" stroke-width="2.0" stroke-linecap="square"/>
  <line x1="215" y1="251" x2="251" y2="215" stroke="#7dffc0" stroke-width="2.0" stroke-linecap="square"/>
  <line x1="215" y1="247" x2="263" y2="295" stroke="#7dffc0" stroke-width="2.0" stroke-linecap="square"/>
  <line x1="215" y1="263" x2="263" y2="215" stroke="#7dffc0" stroke-width="2.0" stroke-linecap="square"/>
  <line x1="215" y1="235" x2="275" y2="295" stroke="#7dffc0" stroke-width="2.0" stroke-linecap="square"/>
  <line x1="215" y1="275" x2="275" y2="215" stroke="#7dffc0" stroke-width="2.0" stroke-linecap="square"/>
  <line x1="215" y1="223" x2="287" y2="295" stroke="#7dffc0" stroke-width="2.0" stroke-linecap="square"/>
  <line x1="215" y1="287" x2="287" y2="215" stroke="#7dffc0" stroke-width="2.0" stroke-linecap="square"/>
  <line x1="219" y1="215" x2="295" y2="291" stroke="#7dffc0" stroke-width="2.0" stroke-linecap="square"/>
  <line x1="219" y1="295" x2="295" y2="219" stroke="#7dffc0" stroke-width="2.0" stroke-linecap="square"/>
  <line x1="231" y1="215" x2="295" y2="279" stroke="#7dffc0" stroke-width="2.0" stroke-linecap="square"/>
  <line x1="231" y1="295" x2="295" y2="231" stroke="#7dffc0" stroke-width="2.0" stroke-linecap="square"/>
  <line x1="243" y1="215" x2="295" y2="267" stroke="#7dffc0" stroke-width="2.0" stroke-linecap="square"/>
  <line x1="243" y1="295" x2="295" y2="243" stroke="#7dffc0" stroke-width="2.0" stroke-linecap="square"/>
  <line x1="255" y1="215" x2="295" y2="255" stroke="#7dffc0" stroke-width="2.0" stroke-linecap="square"/>
  <line x1="255" y1="295" x2="295" y2="255" stroke="#7dffc0" stroke-width="2.0" stroke-linecap="square"/>
  <line x1="267" y1="215" x2="295" y2="243" stroke="#7dffc0" stroke-width="2.0" stroke-linecap="square"/>
  <line x1="267" y1="295" x2="295" y2="267" stroke="#7dffc0" stroke-width="2.0" stroke-linecap="square"/>
  <line x1="279" y1="215" x2="295" y2="231" stroke="#7dffc0" stroke-width="2.0" stroke-linecap="square"/>
  <line x1="279" y1="295" x2="295" y2="279" stroke="#7dffc0" stroke-width="2.0" stroke-linecap="square"/>
  <line x1="291" y1="215" x2="295" y2="219" stroke="#7dffc0" stroke-width="2.0" stroke-linecap="square"/>
  <line x1="291" y1="295" x2="295" y2="291" stroke="#7dffc0" stroke-width="2.0" stroke-linecap="square"/>
  <rect x="215" y="215" width="80" height="80" fill="none" stroke="#50d890" stroke-width="2"/>
  <text x="255" y="256" text-anchor="middle" dominant-baseline="middle" fill="#ffffff" font-size="13" font-family="monospace" font-weight="bold">P1</text>
  <rect x="135" y="135" width="80" height="80" fill="#1e4a2e"/>
  <line x1="135" y1="203" x2="147" y2="215" stroke="#7dffc0" stroke-width="2.0" stroke-linecap="square"/>
  <line x1="135" y1="147" x2="147" y2="135" stroke="#7dffc0" stroke-width="2.0" stroke-linecap="square"/>
  <line x1="135" y1="191" x2="159" y2="215" stroke="#7dffc0" stroke-width="2.0" stroke-linecap="square"/>
  <line x1="135" y1="159" x2="159" y2="135" stroke="#7dffc0" stroke-width="2.0" stroke-linecap="square"/>
  <line x1="135" y1="179" x2="171" y2="215" stroke="#7dffc0" stroke-width="2.0" stroke-linecap="square"/>
  <line x1="135" y1="171" x2="171" y2="135" stroke="#7dffc0" stroke-width="2.0" stroke-linecap="square"/>
  <line x1="135" y1="167" x2="183" y2="215" stroke="#7dffc0" stroke-width="2.0" stroke-linecap="square"/>
  <line x1="135" y1="183" x2="183" y2="135" stroke="#7dffc0" stroke-width="2.0" stroke-linecap="square"/>
  <line x1="135" y1="155" x2="195" y2="215" stroke="#7dffc0" stroke-width="2.0" stroke-linecap="square"/>
  <line x1="135" y1="195" x2="195" y2="135" stroke="#7dffc0" stroke-width="2.0" stroke-linecap="square"/>
  <line x1="135" y1="143" x2="207" y2="215" stroke="#7dffc0" stroke-width="2.0" stroke-linecap="square"/>
  <line x1="135" y1="207" x2="207" y2="135" stroke="#7dffc0" stroke-width="2.0" stroke-linecap="square"/>
  <line x1="139" y1="135" x2="215" y2="211" stroke="#7dffc0" stroke-width="2.0" stroke-linecap="square"/>
  <line x1="139" y1="215" x2="215" y2="139" stroke="#7dffc0" stroke-width="2.0" stroke-linecap="square"/>
  <line x1="151" y1="135" x2="215" y2="199" stroke="#7dffc0" stroke-width="2.0" stroke-linecap="square"/>
  <line x1="151" y1="215" x2="215" y2="151" stroke="#7dffc0" stroke-width="2.0" stroke-linecap="square"/>
  <line x1="163" y1="135" x2="215" y2="187" stroke="#7dffc0" stroke-width="2.0" stroke-linecap="square"/>
  <line x1="163" y1="215" x2="215" y2="163" stroke="#7dffc0" stroke-width="2.0" stroke-linecap="square"/>
  <line x1="175" y1="135" x2="215" y2="175" stroke="#7dffc0" stroke-width="2.0" stroke-linecap="square"/>
  <line x1="175" y1="215" x2="215" y2="175" stroke="#7dffc0" stroke-width="2.0" stroke-linecap="square"/>
  <line x1="187" y1="135" x2="215" y2="163" stroke="#7dffc0" stroke-width="2.0" stroke-linecap="square"/>
  <line x1="187" y1="215" x2="215" y2="187" stroke="#7dffc0" stroke-width="2.0" stroke-linecap="square"/>
  <line x1="199" y1="135" x2="215" y2="151" stroke="#7dffc0" stroke-width="2.0" stroke-linecap="square"/>
  <line x1="199" y1="215" x2="215" y2="199" stroke="#7dffc0" stroke-width="2.0" stroke-linecap="square"/>
  <line x1="211" y1="135" x2="215" y2="139" stroke="#7dffc0" stroke-width="2.0" stroke-linecap="square"/>
  <line x1="211" y1="215" x2="215" y2="211" stroke="#7dffc0" stroke-width="2.0" stroke-linecap="square"/>
  <rect x="135" y="135" width="80" height="80" fill="none" stroke="#50d890" stroke-width="2"/>
  <text x="175" y="176" text-anchor="middle" dominant-baseline="middle" fill="#ffffff" font-size="13" font-family="monospace" font-weight="bold">P2</text>
  <rect x="295" y="135" width="80" height="80" fill="#1e4a2e"/>
  <line x1="295" y1="203" x2="307" y2="215" stroke="#7dffc0" stroke-width="2.0" stroke-linecap="square"/>
  <line x1="295" y1="147" x2="307" y2="135" stroke="#7dffc0" stroke-width="2.0" stroke-linecap="square"/>
  <line x1="295" y1="191" x2="319" y2="215" stroke="#7dffc0" stroke-width="2.0" stroke-linecap="square"/>
  <line x1="295" y1="159" x2="319" y2="135" stroke="#7dffc0" stroke-width="2.0" stroke-linecap="square"/>
  <line x1="295" y1="179" x2="331" y2="215" stroke="#7dffc0" stroke-width="2.0" stroke-linecap="square"/>
  <line x1="295" y1="171" x2="331" y2="135" stroke="#7dffc0" stroke-width="2.0" stroke-linecap="square"/>
  <line x1="295" y1="167" x2="343" y2="215" stroke="#7dffc0" stroke-width="2.0" stroke-linecap="square"/>
  <line x1="295" y1="183" x2="343" y2="135" stroke="#7dffc0" stroke-width="2.0" stroke-linecap="square"/>
  <line x1="295" y1="155" x2="355" y2="215" stroke="#7dffc0" stroke-width="2.0" stroke-linecap="square"/>
  <line x1="295" y1="195" x2="355" y2="135" stroke="#7dffc0" stroke-width="2.0" stroke-linecap="square"/>
  <line x1="295" y1="143" x2="367" y2="215" stroke="#7dffc0" stroke-width="2.0" stroke-linecap="square"/>
  <line x1="295" y1="207" x2="367" y2="135" stroke="#7dffc0" stroke-width="2.0" stroke-linecap="square"/>
  <line x1="299" y1="135" x2="375" y2="211" stroke="#7dffc0" stroke-width="2.0" stroke-linecap="square"/>
  <line x1="299" y1="215" x2="375" y2="139" stroke="#7dffc0" stroke-width="2.0" stroke-linecap="square"/>
  <line x1="311" y1="135" x2="375" y2="199" stroke="#7dffc0" stroke-width="2.0" stroke-linecap="square"/>
  <line x1="311" y1="215" x2="375" y2="151" stroke="#7dffc0" stroke-width="2.0" stroke-linecap="square"/>
  <line x1="323" y1="135" x2="375" y2="187" stroke="#7dffc0" stroke-width="2.0" stroke-linecap="square"/>
  <line x1="323" y1="215" x2="375" y2="163" stroke="#7dffc0" stroke-width="2.0" stroke-linecap="square"/>
  <line x1="335" y1="135" x2="375" y2="175" stroke="#7dffc0" stroke-width="2.0" stroke-linecap="square"/>
  <line x1="335" y1="215" x2="375" y2="175" stroke="#7dffc0" stroke-width="2.0" stroke-linecap="square"/>
  <line x1="347" y1="135" x2="375" y2="163" stroke="#7dffc0" stroke-width="2.0" stroke-linecap="square"/>
  <line x1="347" y1="215" x2="375" y2="187" stroke="#7dffc0" stroke-width="2.0" stroke-linecap="square"/>
  <line x1="359" y1="135" x2="375" y2="151" stroke="#7dffc0" stroke-width="2.0" stroke-linecap="square"/>
  <line x1="359" y1="215" x2="375" y2="199" stroke="#7dffc0" stroke-width="2.0" stroke-linecap="square"/>
  <line x1="371" y1="135" x2="375" y2="139" stroke="#7dffc0" stroke-width="2.0" stroke-linecap="square"/>
  <line x1="371" y1="215" x2="375" y2="211" stroke="#7dffc0" stroke-width="2.0" stroke-linecap="square"/>
  <rect x="295" y="135" width="80" height="80" fill="none" stroke="#50d890" stroke-width="2"/>
  <text x="335" y="176" text-anchor="middle" dominant-baseline="middle" fill="#ffffff" font-size="13" font-family="monospace" font-weight="bold">P3</text>
  <rect x="55" y="55" width="80" height="80" fill="#1e4a2e"/>
  <line x1="55" y1="123" x2="67" y2="135" stroke="#7dffc0" stroke-width="2.0" stroke-linecap="square"/>
  <line x1="55" y1="67" x2="67" y2="55" stroke="#7dffc0" stroke-width="2.0" stroke-linecap="square"/>
  <line x1="55" y1="111" x2="79" y2="135" stroke="#7dffc0" stroke-width="2.0" stroke-linecap="square"/>
  <line x1="55" y1="79" x2="79" y2="55" stroke="#7dffc0" stroke-width="2.0" stroke-linecap="square"/>
  <line x1="55" y1="99" x2="91" y2="135" stroke="#7dffc0" stroke-width="2.0" stroke-linecap="square"/>
  <line x1="55" y1="91" x2="91" y2="55" stroke="#7dffc0" stroke-width="2.0" stroke-linecap="square"/>
  <line x1="55" y1="87" x2="103" y2="135" stroke="#7dffc0" stroke-width="2.0" stroke-linecap="square"/>
  <line x1="55" y1="103" x2="103" y2="55" stroke="#7dffc0" stroke-width="2.0" stroke-linecap="square"/>
  <line x1="55" y1="75" x2="115" y2="135" stroke="#7dffc0" stroke-width="2.0" stroke-linecap="square"/>
  <line x1="55" y1="115" x2="115" y2="55" stroke="#7dffc0" stroke-width="2.0" stroke-linecap="square"/>
  <line x1="55" y1="63" x2="127" y2="135" stroke="#7dffc0" stroke-width="2.0" stroke-linecap="square"/>
  <line x1="55" y1="127" x2="127" y2="55" stroke="#7dffc0" stroke-width="2.0" stroke-linecap="square"/>
  <line x1="59" y1="55" x2="135" y2="131" stroke="#7dffc0" stroke-width="2.0" stroke-linecap="square"/>
  <line x1="59" y1="135" x2="135" y2="59" stroke="#7dffc0" stroke-width="2.0" stroke-linecap="square"/>
  <line x1="71" y1="55" x2="135" y2="119" stroke="#7dffc0" stroke-width="2.0" stroke-linecap="square"/>
  <line x1="71" y1="135" x2="135" y2="71" stroke="#7dffc0" stroke-width="2.0" stroke-linecap="square"/>
  <line x1="83" y1="55" x2="135" y2="107" stroke="#7dffc0" stroke-width="2.0" stroke-linecap="square"/>
  <line x1="83" y1="135" x2="135" y2="83" stroke="#7dffc0" stroke-width="2.0" stroke-linecap="square"/>
  <line x1="95" y1="55" x2="135" y2="95" stroke="#7dffc0" stroke-width="2.0" stroke-linecap="square"/>
  <line x1="95" y1="135" x2="135" y2="95" stroke="#7dffc0" stroke-width="2.0" stroke-linecap="square"/>
  <line x1="107" y1="55" x2="135" y2="83" stroke="#7dffc0" stroke-width="2.0" stroke-linecap="square"/>
  <line x1="107" y1="135" x2="135" y2="107" stroke="#7dffc0" stroke-width="2.0" stroke-linecap="square"/>
  <line x1="119" y1="55" x2="135" y2="71" stroke="#7dffc0" stroke-width="2.0" stroke-linecap="square"/>
  <line x1="119" y1="135" x2="135" y2="119" stroke="#7dffc0" stroke-width="2.0" stroke-linecap="square"/>
  <line x1="131" y1="55" x2="135" y2="59" stroke="#7dffc0" stroke-width="2.0" stroke-linecap="square"/>
  <line x1="131" y1="135" x2="135" y2="131" stroke="#7dffc0" stroke-width="2.0" stroke-linecap="square"/>
  <rect x="55" y="55" width="80" height="80" fill="none" stroke="#50d890" stroke-width="2"/>
  <text x="95" y="96" text-anchor="middle" dominant-baseline="middle" fill="#ffffff" font-size="13" font-family="monospace" font-weight="bold">P4</text>
  <rect x="215" y="55" width="80" height="80" fill="#1e4a2e"/>
  <line x1="215" y1="123" x2="227" y2="135" stroke="#7dffc0" stroke-width="2.0" stroke-linecap="square"/>
  <line x1="215" y1="67" x2="227" y2="55" stroke="#7dffc0" stroke-width="2.0" stroke-linecap="square"/>
  <line x1="215" y1="111" x2="239" y2="135" stroke="#7dffc0" stroke-width="2.0" stroke-linecap="square"/>
  <line x1="215" y1="79" x2="239" y2="55" stroke="#7dffc0" stroke-width="2.0" stroke-linecap="square"/>
  <line x1="215" y1="99" x2="251" y2="135" stroke="#7dffc0" stroke-width="2.0" stroke-linecap="square"/>
  <line x1="215" y1="91" x2="251" y2="55" stroke="#7dffc0" stroke-width="2.0" stroke-linecap="square"/>
  <line x1="215" y1="87" x2="263" y2="135" stroke="#7dffc0" stroke-width="2.0" stroke-linecap="square"/>
  <line x1="215" y1="103" x2="263" y2="55" stroke="#7dffc0" stroke-width="2.0" stroke-linecap="square"/>
  <line x1="215" y1="75" x2="275" y2="135" stroke="#7dffc0" stroke-width="2.0" stroke-linecap="square"/>
  <line x1="215" y1="115" x2="275" y2="55" stroke="#7dffc0" stroke-width="2.0" stroke-linecap="square"/>
  <line x1="215" y1="63" x2="287" y2="135" stroke="#7dffc0" stroke-width="2.0" stroke-linecap="square"/>
  <line x1="215" y1="127" x2="287" y2="55" stroke="#7dffc0" stroke-width="2.0" stroke-linecap="square"/>
  <line x1="219" y1="55" x2="295" y2="131" stroke="#7dffc0" stroke-width="2.0" stroke-linecap="square"/>
  <line x1="219" y1="135" x2="295" y2="59" stroke="#7dffc0" stroke-width="2.0" stroke-linecap="square"/>
  <line x1="231" y1="55" x2="295" y2="119" stroke="#7dffc0" stroke-width="2.0" stroke-linecap="square"/>
  <line x1="231" y1="135" x2="295" y2="71" stroke="#7dffc0" stroke-width="2.0" stroke-linecap="square"/>
  <line x1="243" y1="55" x2="295" y2="107" stroke="#7dffc0" stroke-width="2.0" stroke-linecap="square"/>
  <line x1="243" y1="135" x2="295" y2="83" stroke="#7dffc0" stroke-width="2.0" stroke-linecap="square"/>
  <line x1="255" y1="55" x2="295" y2="95" stroke="#7dffc0" stroke-width="2.0" stroke-linecap="square"/>
  <line x1="255" y1="135" x2="295" y2="95" stroke="#7dffc0" stroke-width="2.0" stroke-linecap="square"/>
  <line x1="267" y1="55" x2="295" y2="83" stroke="#7dffc0" stroke-width="2.0" stroke-linecap="square"/>
  <line x1="267" y1="135" x2="295" y2="107" stroke="#7dffc0" stroke-width="2.0" stroke-linecap="square"/>
  <line x1="279" y1="55" x2="295" y2="71" stroke="#7dffc0" stroke-width="2.0" stroke-linecap="square"/>
  <line x1="279" y1="135" x2="295" y2="119" stroke="#7dffc0" stroke-width="2.0" stroke-linecap="square"/>
  <line x1="291" y1="55" x2="295" y2="59" stroke="#7dffc0" stroke-width="2.0" stroke-linecap="square"/>
  <line x1="291" y1="135" x2="295" y2="131" stroke="#7dffc0" stroke-width="2.0" stroke-linecap="square"/>
  <rect x="215" y="55" width="80" height="80" fill="none" stroke="#50d890" stroke-width="2"/>
  <text x="255" y="96" text-anchor="middle" dominant-baseline="middle" fill="#ffffff" font-size="13" font-family="monospace" font-weight="bold">P5</text>
  <rect x="135" y="295" width="80" height="80" fill="#1e4a2e"/>
  <line x1="135" y1="363" x2="147" y2="375" stroke="#7dffc0" stroke-width="2.0" stroke-linecap="square"/>
  <line x1="135" y1="307" x2="147" y2="295" stroke="#7dffc0" stroke-width="2.0" stroke-linecap="square"/>
  <line x1="135" y1="351" x2="159" y2="375" stroke="#7dffc0" stroke-width="2.0" stroke-linecap="square"/>
  <line x1="135" y1="319" x2="159" y2="295" stroke="#7dffc0" stroke-width="2.0" stroke-linecap="square"/>
  <line x1="135" y1="339" x2="171" y2="375" stroke="#7dffc0" stroke-width="2.0" stroke-linecap="square"/>
  <line x1="135" y1="331" x2="171" y2="295" stroke="#7dffc0" stroke-width="2.0" stroke-linecap="square"/>
  <line x1="135" y1="327" x2="183" y2="375" stroke="#7dffc0" stroke-width="2.0" stroke-linecap="square"/>
  <line x1="135" y1="343" x2="183" y2="295" stroke="#7dffc0" stroke-width="2.0" stroke-linecap="square"/>
  <line x1="135" y1="315" x2="195" y2="375" stroke="#7dffc0" stroke-width="2.0" stroke-linecap="square"/>
  <line x1="135" y1="355" x2="195" y2="295" stroke="#7dffc0" stroke-width="2.0" stroke-linecap="square"/>
  <line x1="135" y1="303" x2="207" y2="375" stroke="#7dffc0" stroke-width="2.0" stroke-linecap="square"/>
  <line x1="135" y1="367" x2="207" y2="295" stroke="#7dffc0" stroke-width="2.0" stroke-linecap="square"/>
  <line x1="139" y1="295" x2="215" y2="371" stroke="#7dffc0" stroke-width="2.0" stroke-linecap="square"/>
  <line x1="139" y1="375" x2="215" y2="299" stroke="#7dffc0" stroke-width="2.0" stroke-linecap="square"/>
  <line x1="151" y1="295" x2="215" y2="359" stroke="#7dffc0" stroke-width="2.0" stroke-linecap="square"/>
  <line x1="151" y1="375" x2="215" y2="311" stroke="#7dffc0" stroke-width="2.0" stroke-linecap="square"/>
  <line x1="163" y1="295" x2="215" y2="347" stroke="#7dffc0" stroke-width="2.0" stroke-linecap="square"/>
  <line x1="163" y1="375" x2="215" y2="323" stroke="#7dffc0" stroke-width="2.0" stroke-linecap="square"/>
  <line x1="175" y1="295" x2="215" y2="335" stroke="#7dffc0" stroke-width="2.0" stroke-linecap="square"/>
  <line x1="175" y1="375" x2="215" y2="335" stroke="#7dffc0" stroke-width="2.0" stroke-linecap="square"/>
  <line x1="187" y1="295" x2="215" y2="323" stroke="#7dffc0" stroke-width="2.0" stroke-linecap="square"/>
  <line x1="187" y1="375" x2="215" y2="347" stroke="#7dffc0" stroke-width="2.0" stroke-linecap="square"/>
  <line x1="199" y1="295" x2="215" y2="311" stroke="#7dffc0" stroke-width="2.0" stroke-linecap="square"/>
  <line x1="199" y1="375" x2="215" y2="359" stroke="#7dffc0" stroke-width="2.0" stroke-linecap="square"/>
  <line x1="211" y1="295" x2="215" y2="299" stroke="#7dffc0" stroke-width="2.0" stroke-linecap="square"/>
  <line x1="211" y1="375" x2="215" y2="371" stroke="#7dffc0" stroke-width="2.0" stroke-linecap="square"/>
  <rect x="135" y="295" width="80" height="80" fill="none" stroke="#50d890" stroke-width="2"/>
  <text x="175" y="336" text-anchor="middle" dominant-baseline="middle" fill="#ffffff" font-size="13" font-family="monospace" font-weight="bold">P6</text>
  <rect x="295" y="295" width="80" height="80" fill="#1e4a2e"/>
  <line x1="295" y1="363" x2="307" y2="375" stroke="#7dffc0" stroke-width="2.0" stroke-linecap="square"/>
  <line x1="295" y1="307" x2="307" y2="295" stroke="#7dffc0" stroke-width="2.0" stroke-linecap="square"/>
  <line x1="295" y1="351" x2="319" y2="375" stroke="#7dffc0" stroke-width="2.0" stroke-linecap="square"/>
  <line x1="295" y1="319" x2="319" y2="295" stroke="#7dffc0" stroke-width="2.0" stroke-linecap="square"/>
  <line x1="295" y1="339" x2="331" y2="375" stroke="#7dffc0" stroke-width="2.0" stroke-linecap="square"/>
  <line x1="295" y1="331" x2="331" y2="295" stroke="#7dffc0" stroke-width="2.0" stroke-linecap="square"/>
  <line x1="295" y1="327" x2="343" y2="375" stroke="#7dffc0" stroke-width="2.0" stroke-linecap="square"/>
  <line x1="295" y1="343" x2="343" y2="295" stroke="#7dffc0" stroke-width="2.0" stroke-linecap="square"/>
  <line x1="295" y1="315" x2="355" y2="375" stroke="#7dffc0" stroke-width="2.0" stroke-linecap="square"/>
  <line x1="295" y1="355" x2="355" y2="295" stroke="#7dffc0" stroke-width="2.0" stroke-linecap="square"/>
  <line x1="295" y1="303" x2="367" y2="375" stroke="#7dffc0" stroke-width="2.0" stroke-linecap="square"/>
  <line x1="295" y1="367" x2="367" y2="295" stroke="#7dffc0" stroke-width="2.0" stroke-linecap="square"/>
  <line x1="299" y1="295" x2="375" y2="371" stroke="#7dffc0" stroke-width="2.0" stroke-linecap="square"/>
  <line x1="299" y1="375" x2="375" y2="299" stroke="#7dffc0" stroke-width="2.0" stroke-linecap="square"/>
  <line x1="311" y1="295" x2="375" y2="359" stroke="#7dffc0" stroke-width="2.0" stroke-linecap="square"/>
  <line x1="311" y1="375" x2="375" y2="311" stroke="#7dffc0" stroke-width="2.0" stroke-linecap="square"/>
  <line x1="323" y1="295" x2="375" y2="347" stroke="#7dffc0" stroke-width="2.0" stroke-linecap="square"/>
  <line x1="323" y1="375" x2="375" y2="323" stroke="#7dffc0" stroke-width="2.0" stroke-linecap="square"/>
  <line x1="335" y1="295" x2="375" y2="335" stroke="#7dffc0" stroke-width="2.0" stroke-linecap="square"/>
  <line x1="335" y1="375" x2="375" y2="335" stroke="#7dffc0" stroke-width="2.0" stroke-linecap="square"/>
  <line x1="347" y1="295" x2="375" y2="323" stroke="#7dffc0" stroke-width="2.0" stroke-linecap="square"/>
  <line x1="347" y1="375" x2="375" y2="347" stroke="#7dffc0" stroke-width="2.0" stroke-linecap="square"/>
  <line x1="359" y1="295" x2="375" y2="311" stroke="#7dffc0" stroke-width="2.0" stroke-linecap="square"/>
  <line x1="359" y1="375" x2="375" y2="359" stroke="#7dffc0" stroke-width="2.0" stroke-linecap="square"/>
  <line x1="371" y1="295" x2="375" y2="299" stroke="#7dffc0" stroke-width="2.0" stroke-linecap="square"/>
  <line x1="371" y1="375" x2="375" y2="371" stroke="#7dffc0" stroke-width="2.0" stroke-linecap="square"/>
  <rect x="295" y="295" width="80" height="80" fill="none" stroke="#50d890" stroke-width="2"/>
  <text x="335" y="336" text-anchor="middle" dominant-baseline="middle" fill="#ffffff" font-size="13" font-family="monospace" font-weight="bold">P7</text>
  <line x1="55" y1="55" x2="135" y2="55" stroke="#3a5468" stroke-width="1.5"/>
  <line x1="135" y1="55" x2="215" y2="55" stroke="#3a5468" stroke-width="1.5"/>
  <line x1="215" y1="55" x2="295" y2="55" stroke="#3a5468" stroke-width="1.5"/>
  <line x1="295" y1="55" x2="375" y2="55" stroke="#3a5468" stroke-width="1.5"/>
  <line x1="55" y1="135" x2="135" y2="135" stroke="#3a5468" stroke-width="1.5"/>
  <line x1="135" y1="135" x2="215" y2="135" stroke="#3a5468" stroke-width="1.5"/>
  <line x1="215" y1="135" x2="295" y2="135" stroke="#3a5468" stroke-width="1.5"/>
  <line x1="295" y1="135" x2="375" y2="135" stroke="#3a5468" stroke-width="1.5"/>
  <line x1="55" y1="215" x2="135" y2="215" stroke="#3a5468" stroke-width="1.5"/>
  <line x1="135" y1="215" x2="215" y2="215" stroke="#3a5468" stroke-width="1.5"/>
  <line x1="215" y1="215" x2="295" y2="215" stroke="#3a5468" stroke-width="1.5"/>
  <line x1="295" y1="215" x2="375" y2="215" stroke="#3a5468" stroke-width="1.5"/>
  <line x1="55" y1="295" x2="135" y2="295" stroke="#3a5468" stroke-width="1.5"/>
  <line x1="135" y1="295" x2="215" y2="295" stroke="#3a5468" stroke-width="1.5"/>
  <line x1="215" y1="295" x2="295" y2="295" stroke="#3a5468" stroke-width="1.5"/>
  <line x1="295" y1="295" x2="375" y2="295" stroke="#3a5468" stroke-width="1.5"/>
  <line x1="55" y1="375" x2="135" y2="375" stroke="#3a5468" stroke-width="1.5"/>
  <line x1="135" y1="375" x2="215" y2="375" stroke="#3a5468" stroke-width="1.5"/>
  <line x1="215" y1="375" x2="295" y2="375" stroke="#3a5468" stroke-width="1.5"/>
  <line x1="295" y1="375" x2="375" y2="375" stroke="#3a5468" stroke-width="1.5"/>
  <line x1="55" y1="55" x2="55" y2="135" stroke="#3a5468" stroke-width="1.5"/>
  <line x1="55" y1="135" x2="55" y2="215" stroke="#3a5468" stroke-width="1.5"/>
  <line x1="55" y1="215" x2="55" y2="295" stroke="#3a5468" stroke-width="1.5"/>
  <line x1="55" y1="295" x2="55" y2="375" stroke="#3a5468" stroke-width="1.5"/>
  <line x1="135" y1="55" x2="135" y2="135" stroke="#3a5468" stroke-width="1.5"/>
  <line x1="135" y1="135" x2="135" y2="215" stroke="#3a5468" stroke-width="1.5"/>
  <line x1="135" y1="215" x2="135" y2="295" stroke="#3a5468" stroke-width="1.5"/>
  <line x1="135" y1="295" x2="135" y2="375" stroke="#3a5468" stroke-width="1.5"/>
  <line x1="215" y1="55" x2="215" y2="135" stroke="#3a5468" stroke-width="1.5"/>
  <line x1="215" y1="135" x2="215" y2="215" stroke="#3a5468" stroke-width="1.5"/>
  <line x1="215" y1="215" x2="215" y2="295" stroke="#3a5468" stroke-width="1.5"/>
  <line x1="215" y1="295" x2="215" y2="375" stroke="#3a5468" stroke-width="1.5"/>
  <line x1="295" y1="55" x2="295" y2="135" stroke="#3a5468" stroke-width="1.5"/>
  <line x1="295" y1="135" x2="295" y2="215" stroke="#3a5468" stroke-width="1.5"/>
  <line x1="295" y1="215" x2="295" y2="295" stroke="#3a5468" stroke-width="1.5"/>
  <line x1="295" y1="295" x2="295" y2="375" stroke="#3a5468" stroke-width="1.5"/>
  <line x1="375" y1="55" x2="375" y2="135" stroke="#3a5468" stroke-width="1.5"/>
  <line x1="375" y1="135" x2="375" y2="215" stroke="#3a5468" stroke-width="1.5"/>
  <line x1="375" y1="215" x2="375" y2="295" stroke="#3a5468" stroke-width="1.5"/>
  <line x1="375" y1="295" x2="375" y2="375" stroke="#3a5468" stroke-width="1.5"/>
  <circle cx="55" cy="55" r="9" fill="#b0c8e0" stroke="#e0f0ff" stroke-width="1.5" />
  <text x="55" y="77" text-anchor="middle" fill="#b0c8e0" font-size="9" font-family="monospace">12</text>
  <circle cx="55" cy="135" r="9" fill="#b0c8e0" stroke="#e0f0ff" stroke-width="1.5" />
  <text x="55" y="122" text-anchor="middle" fill="#b0c8e0" font-size="9" font-family="monospace">8</text>
  <circle cx="55" cy="215" r="9" fill="#b0c8e0" stroke="#e0f0ff" stroke-width="1.5" />
  <text x="55" y="202" text-anchor="middle" fill="#b0c8e0" font-size="9" font-family="monospace">4</text>
  <circle cx="55" cy="295" r="9" fill="#b0c8e0" stroke="#e0f0ff" stroke-width="1.5" />
  <text x="55" y="282" text-anchor="middle" fill="#b0c8e0" font-size="9" font-family="monospace">0</text>
  <circle cx="55" cy="375" r="9" fill="#4a5a6a" stroke="#2a3a4a" stroke-width="1.5" stroke-dasharray="3,2"/>
  <text x="55" y="362" text-anchor="middle" fill="#4a5a6a" font-size="9" font-family="monospace">12</text>
  <circle cx="135" cy="55" r="9" fill="#b0c8e0" stroke="#e0f0ff" stroke-width="1.5" />
  <text x="135" y="77" text-anchor="middle" fill="#b0c8e0" font-size="9" font-family="monospace">13</text>
  <circle cx="135" cy="135" r="9" fill="#b0c8e0" stroke="#e0f0ff" stroke-width="1.5" />
  <text x="135" y="122" text-anchor="middle" fill="#b0c8e0" font-size="9" font-family="monospace">9</text>
  <circle cx="135" cy="215" r="9" fill="#b0c8e0" stroke="#e0f0ff" stroke-width="1.5" />
  <text x="135" y="202" text-anchor="middle" fill="#b0c8e0" font-size="9" font-family="monospace">5</text>
  <circle cx="135" cy="295" r="9" fill="#b0c8e0" stroke="#e0f0ff" stroke-width="1.5" />
  <text x="135" y="282" text-anchor="middle" fill="#b0c8e0" font-size="9" font-family="monospace">1</text>
  <circle cx="135" cy="375" r="9" fill="#4a5a6a" stroke="#2a3a4a" stroke-width="1.5" stroke-dasharray="3,2"/>
  <text x="135" y="362" text-anchor="middle" fill="#4a5a6a" font-size="9" font-family="monospace">13</text>
  <circle cx="215" cy="55" r="9" fill="#b0c8e0" stroke="#e0f0ff" stroke-width="1.5" />
  <text x="215" y="77" text-anchor="middle" fill="#b0c8e0" font-size="9" font-family="monospace">14</text>
  <circle cx="215" cy="135" r="9" fill="#b0c8e0" stroke="#e0f0ff" stroke-width="1.5" />
  <text x="215" y="122" text-anchor="middle" fill="#b0c8e0" font-size="9" font-family="monospace">10</text>
  <circle cx="215" cy="215" r="9" fill="#b0c8e0" stroke="#e0f0ff" stroke-width="1.5" />
  <text x="215" y="202" text-anchor="middle" fill="#b0c8e0" font-size="9" font-family="monospace">6</text>
  <circle cx="215" cy="295" r="9" fill="#b0c8e0" stroke="#e0f0ff" stroke-width="1.5" />
  <text x="215" y="282" text-anchor="middle" fill="#b0c8e0" font-size="9" font-family="monospace">2</text>
  <circle cx="215" cy="375" r="9" fill="#4a5a6a" stroke="#2a3a4a" stroke-width="1.5" stroke-dasharray="3,2"/>
  <text x="215" y="362" text-anchor="middle" fill="#4a5a6a" font-size="9" font-family="monospace">14</text>
  <circle cx="295" cy="55" r="9" fill="#b0c8e0" stroke="#e0f0ff" stroke-width="1.5" />
  <text x="295" y="77" text-anchor="middle" fill="#b0c8e0" font-size="9" font-family="monospace">15</text>
  <circle cx="295" cy="135" r="9" fill="#b0c8e0" stroke="#e0f0ff" stroke-width="1.5" />
  <text x="295" y="122" text-anchor="middle" fill="#b0c8e0" font-size="9" font-family="monospace">11</text>
  <circle cx="295" cy="215" r="9" fill="#b0c8e0" stroke="#e0f0ff" stroke-width="1.5" />
  <text x="295" y="202" text-anchor="middle" fill="#b0c8e0" font-size="9" font-family="monospace">7</text>
  <circle cx="295" cy="295" r="9" fill="#b0c8e0" stroke="#e0f0ff" stroke-width="1.5" />
  <text x="295" y="282" text-anchor="middle" fill="#b0c8e0" font-size="9" font-family="monospace">3</text>
  <circle cx="295" cy="375" r="9" fill="#4a5a6a" stroke="#2a3a4a" stroke-width="1.5" stroke-dasharray="3,2"/>
  <text x="295" y="362" text-anchor="middle" fill="#4a5a6a" font-size="9" font-family="monospace">15</text>
  <circle cx="375" cy="55" r="9" fill="#4a5a6a" stroke="#2a3a4a" stroke-width="1.5" stroke-dasharray="3,2"/>
  <text x="375" y="77" text-anchor="middle" fill="#4a5a6a" font-size="9" font-family="monospace">12</text>
  <circle cx="375" cy="135" r="9" fill="#4a5a6a" stroke="#2a3a4a" stroke-width="1.5" stroke-dasharray="3,2"/>
  <text x="375" y="122" text-anchor="middle" fill="#4a5a6a" font-size="9" font-family="monospace">8</text>
  <circle cx="375" cy="215" r="9" fill="#4a5a6a" stroke="#2a3a4a" stroke-width="1.5" stroke-dasharray="3,2"/>
  <text x="375" y="202" text-anchor="middle" fill="#4a5a6a" font-size="9" font-family="monospace">4</text>
  <circle cx="375" cy="295" r="9" fill="#4a5a6a" stroke="#2a3a4a" stroke-width="1.5" stroke-dasharray="3,2"/>
  <text x="375" y="282" text-anchor="middle" fill="#4a5a6a" font-size="9" font-family="monospace">0</text>
  <circle cx="375" cy="375" r="9" fill="#4a5a6a" stroke="#2a3a4a" stroke-width="1.5" stroke-dasharray="3,2"/>
  <text x="375" y="362" text-anchor="middle" fill="#4a5a6a" font-size="9" font-family="monospace">12</text>
  <text x="215" y="22" text-anchor="middle" fill="#6080a0" font-size="11" font-family="monospace">H2SQ 4x4  |  Black Plaquettes P0..P7</text>
  <text x="14" y="215" text-anchor="middle" fill="#4a6080" font-size="9" font-family="monospace" transform="rotate(-90,14,215)">y (lattice)</text>
  <text x="215" y="422" text-anchor="middle" fill="#4a6080" font-size="9" font-family="monospace">x (lattice)</text>
</svg>